<?xml version="1.0" encoding="utf-8"?>
<!-- Generator: Adobe Illustrator 19.0.0, SVG Export Plug-In . SVG Version: 6.00 Build 0)  -->
<svg version="1.1" id="Capa_1" xmlns="http://www.w3.org/2000/svg" xmlns:xlink="http://www.w3.org/1999/xlink" x="0px" y="0px"
	 viewBox="-231 33 496 496" style="enable-background:new -231 33 496 496;" xml:space="preserve">
<style type="text/css">
	.st0{fill:#285096;}
	.st1{fill:#212529;}
	.st2{fill:#FFFFFF;}
	.st3{fill:#FCFCFC;}
</style>
<g>
	<path class="st0" d="M152.4,185c-1.6,0-3.1-0.5-4.5-1.4c-2.6-1.8-4-4.9-3.4-8l5.3-30.6h-21.4c-13.2,0-24-10.8-24-24V57
		c0-13.2,10.8-24,24-24h112c13.2,0,24,10.8,24,24v64c0,13.2-10.8,24-24,24h-21.7l-62.1,38.8C155.4,184.6,153.9,185,152.4,185z"/>
	
		<rect x="-179.3" y="301.3" transform="matrix(0.7071 -0.7071 0.7071 0.7071 -285.2632 -18.2403)" class="st0" width="29.3" height="67.9"/>
	<polygon class="st0" points="-22.6,498 0.4,476.9 -47.6,428.9 -70.7,449.8 	"/>
</g>
<path class="st1" d="M153,409.4c-6.5-19.4-23-33.7-43.1-37.4l-53.5-9.7v-4.1c9.3-5.4,17.4-12.6,23.8-21.2h16.2c13.2,0,24-10.8,24-24
	v-96c0-57.3-46.7-104-104-104s-104,46.7-104,104v56c0,15.4,11,28.3,25.5,31.3c4.5,23,18.9,42.4,38.5,53.8v4.1L-77,372
	c-20.1,3.7-36.6,18-43.1,37.4l-3.2,9.6l-27.2-27.2c-3.1-3.1-3.1-8.2,0-11.3l31.6-31.6l-59.3-59.3l-35.7,35.7
	c-10.6,10.6-16.4,24.6-16.4,39.6s5.8,29,16.4,39.6l108.1,108.1c10.6,10.6,24.6,16.4,39.6,16.4s29-5.8,39.3-16.2l39-35.7L-0.1,465
	h171.7L153,409.4z M16.4,389.7l-24-24v-0.4c7.6,2.4,15.6,3.7,24,3.7s16.4-1.3,24-3.7v0.4L16.4,389.7z M96.4,321h-6.7
	c2.3-5.3,4.1-10.9,5.2-16.7c3.4-0.7,6.6-2.1,9.5-3.8V313C104.4,317.4,100.8,321,96.4,321z M96.4,259.2c4.8,2.8,8,7.9,8,13.8
	s-3.2,11-8,13.8V259.2z M-71.6,273c0-5.9,3.2-11,8-13.8v27.6C-68.3,284-71.6,278.9-71.6,273z M-63.6,233v9.1c-2.8,0.7-5.5,1.9-8,3.3
	V217c0-48.5,39.5-88,88-88s88,39.5,88,88v28.4c-2.5-1.4-5.2-2.6-8-3.3V233h-8c-23.7,0-45.9-9.2-62.6-25.9l-9.4-9.4l-9.4,9.4
	c-16.7,16.7-39,25.9-62.6,25.9H-63.6z M-47.6,289v-40.3c24-1.8,46.4-11.7,64-28.4c17.6,16.7,40,26.6,64,28.4V289
	c0,11.7-3.2,22.6-8.7,32H16.4v16h42.2c-11.3,9.9-26,16-42.2,16C-18.9,353-47.6,324.3-47.6,289z M-141.6,348.9l-8.7,8.7l-36.7-36.7
	l8.7-8.7L-141.6,348.9z M-66.3,513c-10.7,0-20.7-4.2-28.3-11.7l-108.1-108.1c-7.6-7.6-11.7-17.6-11.7-28.3
	c0-10.7,4.2-20.7,11.7-28.3l4.4-4.4l36.7,36.7l-0.3,0.3c-9.4,9.4-9.4,24.6,0,33.9l57.4,57.4c4.5,4.5,10.6,7,17,7s12.4-2.5,16.7-6.8
	l0.6-0.5l36.9,36.9l-4.6,4.2C-45.6,508.8-55.6,513-66.3,513z M-21.6,486.3l-36.8-36.8l10.6-9.6l36.7,36.7L-21.6,486.3z M-16.1,449
	l-31.2-31.2l-34.6,31.3c-3,3-8.3,3-11.3,0l-17.5-17.5l5.7-17.2c4.6-13.9,16.4-24.1,30.8-26.7l55.9-10.2l34.7,34.7l34.7-34.7
	l55.9,10.2c14.4,2.6,26.2,12.8,30.8,26.7l11.5,34.5H-16.1z"/>
<rect x="136.4" y="65" class="st2" width="96" height="16"/>
<rect x="136.4" y="97" class="st3" width="64" height="16"/>
<rect x="216.4" y="97" class="st2" width="16" height="16"/>
<path class="st1" d="M-155.5,231.9l-8.2-13.7l-21.7,13C-162.7,138.9-79.7,73,16.4,73c21,0,41.8,3.1,61.6,9.3L82.8,67
	c-21.4-6.6-43.7-10-66.4-10c-104.5,0-194.6,72.3-218,173.2l-15.2-25.3l-13.7,8.2l28.1,46.9L-155.5,231.9z"/>
<path class="st1" d="M260.5,210.1L213.7,182l-28.1,46.9l13.7,8.2l14-23.3c7.4,21.6,11.1,44.1,11.1,67.2c0,47.6-16.5,94.1-46.4,131
	l12.4,10.1c32.2-39.7,50-89.8,50-141c0-24.5-3.9-48.4-11.6-71.2l23.5,14.1L260.5,210.1z"/>
</svg>
